# xmcd
#
# Track frame offsets: 
#        150
#        25811
#        40791
#        55370
#        84300
#        100030
#        118395
#        136895
#        162881
#        198113
#
# Disc length: 2812 seconds
#
# Revision: 0
# Processed by: cddbd v1.5.2PL0 Copyright (c) Steve Scherf et al.
# Submitted via: ExactAudioCopy v0.99pb3
#
DISCID=7a0afa0a
DTITLE=Peter Parcek 3 - The Mathematics Of Love
DYEAR=2009
DGENRE=Blues
TTITLE0=Showbiz Blues
TTITLE1=The Mathematics Of Love
TTITLE2=Rollin' With Zah
TTITLE3=Lord, Help The Poor And Needy
TTITLE4=Get Right With God
TTITLE5=Tears Like Diamonds
TTITLE6=Kokomo Me Baby
TTITLE7=New Year's Eve
TTITLE8=Busted
TTITLE9=Evolution
EXTD=
EXTT0=
EXTT1=
EXTT2=
EXTT3=
EXTT4=
EXTT5=
EXTT6=
EXTT7=
EXTT8=
EXTT9=
PLAYORDER=
